<?xml version="1.0" encoding="UTF-8" standalone="no"?>
<svg
   xmlns:dc="http://purl.org/dc/elements/1.1/"
   xmlns:cc="http://creativecommons.org/ns#"
   xmlns:rdf="http://www.w3.org/1999/02/22-rdf-syntax-ns#"
   xmlns:svg="http://www.w3.org/2000/svg"
   xmlns="http://www.w3.org/2000/svg"
   xmlns:sodipodi="http://sodipodi.sourceforge.net/DTD/sodipodi-0.dtd"
   xmlns:inkscape="http://www.inkscape.org/namespaces/inkscape"
   viewBox="0 0 64 64"
   width="512"
   height="512"
   version="1.1"
   id="svg912"
   sodipodi:docname="001-sports-and-competition-1.svg"
   inkscape:version="0.92.2 (5c3e80d, 2017-08-06)">
  <metadata
     id="metadata918">
    <rdf:RDF>
      <cc:Work
         rdf:about="">
        <dc:format>image/svg+xml</dc:format>
        <dc:type
           rdf:resource="http://purl.org/dc/dcmitype/StillImage" />
      </cc:Work>
    </rdf:RDF>
  </metadata>
  <defs
     id="defs916" />
  <sodipodi:namedview
     pagecolor="#ffffff"
     bordercolor="#666666"
     borderopacity="1"
     objecttolerance="10"
     gridtolerance="10"
     guidetolerance="10"
     inkscape:pageopacity="0"
     inkscape:pageshadow="2"
     inkscape:window-width="2880"
     inkscape:window-height="1526"
     id="namedview914"
     showgrid="false"
     inkscape:zoom="1.84375"
     inkscape:cx="-25.731055"
     inkscape:cy="269.43633"
     inkscape:window-x="-11"
     inkscape:window-y="-11"
     inkscape:window-maximized="1"
     inkscape:current-layer="svg912" />
  <g
     id="Tactic-2"
     data-name="Tactic">
    <path
       d="M54,2V62H10V2H22V6a2.006,2.006,0,0,0,2,2H40a2.006,2.006,0,0,0,2-2V2Z"
       style="fill:#787680"
       id="path889" />
    <path
       d="M42,2V6a2.006,2.006,0,0,1-2,2H24a2.006,2.006,0,0,1-2-2V2Z"
       style="fill:#ffde17"
       id="path891" />
    <path
       d="M51,5V59H13V5h9V6a2.006,2.006,0,0,0,2,2H40a2.006,2.006,0,0,0,2-2V5Z"
       style="fill:#ffeb99;stroke:none"
       id="path893" />
    <circle
       cx="21"
       cy="47"
       r="2"
       style="fill:#ed1c24;stroke:none"
       id="circle895" />
    <path
       d="M28.515,36.143A1,1,0,0,0,27.2,36.4l-5.735,7.647a3.018,3.018,0,1,0,1.771.972l5.023-6.7,4.226,2.536a1,1,0,0,0,1.252-.181l11-12a1,1,0,0,0,.022-1.327L40.174,22H41a1,1,0,0,0,0-2H38a.116.116,0,0,0-.018,0,.959.959,0,0,0-.329.058.171.171,0,0,0-.023.013.851.851,0,0,0-.078.043.963.963,0,0,0-.217.147.882.882,0,0,0-.079.083,1.026,1.026,0,0,0-.137.2.888.888,0,0,0-.048.1A1,1,0,0,0,37,21v3a1,1,0,0,0,2,0v-.3l3.664,4.275-9.85,10.745ZM21,48a1,1,0,1,1,1-1A1,1,0,0,1,21,48Z"
       id="path897"
       style="stroke:none;fill:#000000;fill-opacity:1" />
    <path
       d="M25.793,19.207a1,1,0,0,0,1.414,0L28,18.414l.793.793a1,1,0,0,0,1.414-1.414L29.414,17l.793-.793a1,1,0,0,0-1.414-1.414L28,15.586l-.793-.793a1,1,0,0,0-1.414,1.414l.793.793-.793.793A1,1,0,0,0,25.793,19.207Z"
       id="path899"
       style="fill:#000000;fill-opacity:1;stroke:none;stroke-opacity:1" />
    <path
       d="M20.793,30.207l.793.793-.793.793a1,1,0,1,0,1.414,1.414L23,32.414l.793.793a1,1,0,0,0,1.414-1.414L24.414,31l.793-.793a1,1,0,0,0-1.414-1.414L23,29.586l-.793-.793a1,1,0,0,0-1.414,1.414Z"
       id="path901"
       style="fill:#000000;fill-opacity:1;stroke:none" />
    <path
       d="M43.793,37.793,43,38.586l-.793-.793a1,1,0,0,0-1.414,1.414l.793.793-.793.793a1,1,0,1,0,1.414,1.414L43,41.414l.793.793a1,1,0,0,0,1.414-1.414L44.414,40l.793-.793a1,1,0,0,0-1.414-1.414Z"
       id="path903"
       style="stroke:none;stroke-opacity:1;fill:#000000;fill-opacity:1" />
    <path
       d="M54,1H10A1,1,0,0,0,9,2V62a1,1,0,0,0,1,1H54a1,1,0,0,0,1-1V2A1,1,0,0,0,54,1ZM24,9H40a3,3,0,0,0,3-3h7V58H14V6h7A3,3,0,0,0,24,9ZM41,3V6a1,1,0,0,1-1,1H24a1,1,0,0,1-1-1V3ZM53,61H11V3H21V4H13a1,1,0,0,0-1,1V59a1,1,0,0,0,1,1H51a1,1,0,0,0,1-1V5a1,1,0,0,0-1-1H43V3H53Z"
       id="path905"
       style="fill:#000000;fill-opacity:1;stroke:none" />
    <path
       d="M25,6h5a1,1,0,0,0,0-2H25a1,1,0,0,0,0,2Z"
       id="path907"
       style="fill:#000000;fill-opacity:1;stroke:none" />
    <path
       d="M33,6h2a1,1,0,0,0,0-2H33a1,1,0,0,0,0,2Z"
       id="path909"
       style="stroke:none;fill:#ffeb99;fill-opacity:1" />
  </g>
</svg>
