<svg viewBox="1 1 511 511.99972" xmlns="http://www.w3.org/2000/svg"><path d="m346.355469 16.765625c-22.5-22.414063-58.917969-22.34375-81.332031.15625l-8.523438 8.558594-8.523438-8.558594c-22.414062-22.5-58.828124-22.570313-81.332031-.15625-22.503906 22.417969-22.574219 58.832031-.15625 81.332031l90.011719 90.363282 90.015625-90.363282c22.414063-22.5 22.34375-58.914062-.160156-81.332031zm0 0"/><path d="m283.742188 435.4375h165.035156v76.5625h-165.035156zm0 0"/><path d="m506.042969 41.859375c-4.164063-4.164063-9.699219-6.457031-15.589844-6.457031-12.160156 0-22.046875 9.890625-22.046875 22.046875v120.554687h-.167969c0 17.082032-6.503906 34.160156-19.503906 47.160156l-53.171875 53.171876-21.214844-21.210938 53.171875-53.171875c14.308594-14.308594 14.308594-37.585937 0-51.890625l-5.234375-5.234375-83.238281 83.238281c-15.179687 15.179688-23.539063 35.363282-23.539063 56.828125v118.542969h86.046876v-48.210938l87.40625-87.410156c15.179687-15.175781 23.539062-35.359375 23.539062-56.828125v-155.539062c0-5.886719-2.292969-11.425781-6.457031-15.589844zm0 0"/><path d="m111.445312 405.4375h86.046876v-118.539062c0-21.46875-8.359376-41.652344-23.539063-56.828126l-83.242187-83.242187-5.230469 5.234375c-14.308594 14.304688-14.308594 37.585938 0 51.890625l53.171875 53.171875-21.214844 21.214844-53.171875-53.171875c-13-13.003907-19.503906-30.082031-19.503906-47.160157h-.167969v-120.554687c0-12.15625-9.890625-22.046875-22.046875-22.046875-5.890625 0-11.425781 2.292969-15.589844 6.457031-4.164062 4.160157-6.457031 9.699219-6.457031 15.585938v155.542969c0 21.464843 8.359375 41.648437 23.539062 56.828124l87.40625 87.40625zm0 0"/><path d="m64.222656 435.4375h165.035156v76.5625h-165.035156zm0 0"/></svg>