<?xml version="1.0" encoding="UTF-8" standalone="no"?>
<!-- Generator: Adobe Illustrator 19.0.0, SVG Export Plug-In . SVG Version: 6.00 Build 0)  -->

<svg
   xmlns:dc="http://purl.org/dc/elements/1.1/"
   xmlns:cc="http://creativecommons.org/ns#"
   xmlns:rdf="http://www.w3.org/1999/02/22-rdf-syntax-ns#"
   xmlns:svg="http://www.w3.org/2000/svg"
   xmlns="http://www.w3.org/2000/svg"
   xmlns:sodipodi="http://sodipodi.sourceforge.net/DTD/sodipodi-0.dtd"
   xmlns:inkscape="http://www.inkscape.org/namespaces/inkscape"
   version="1.1"
   id="Capa_1"
   x="0px"
   y="0px"
   viewBox="0 0 56 56"
   style="enable-background:new 0 0 56 56;"
   xml:space="preserve"
   sodipodi:docname="001-coin.svg"
   inkscape:version="0.92.2 (5c3e80d, 2017-08-06)"><metadata
     id="metadata6978"><rdf:RDF><cc:Work
         rdf:about=""><dc:format>image/svg+xml</dc:format><dc:type
           rdf:resource="http://purl.org/dc/dcmitype/StillImage" /></cc:Work></rdf:RDF></metadata><defs
     id="defs6976" /><sodipodi:namedview
     pagecolor="#ffffff"
     bordercolor="#666666"
     borderopacity="1"
     objecttolerance="10"
     gridtolerance="10"
     guidetolerance="10"
     inkscape:pageopacity="0"
     inkscape:pageshadow="2"
     inkscape:window-width="1920"
     inkscape:window-height="1017"
     id="namedview6974"
     showgrid="false"
     inkscape:zoom="8.4285715"
     inkscape:cx="16.176751"
     inkscape:cy="26.384515"
     inkscape:window-x="1912"
     inkscape:window-y="-8"
     inkscape:window-maximized="1"
     inkscape:current-layer="Capa_1" /><g
     id="XMLID_100_"
     transform="matrix(-1,0,0,1,55.881356,-0.7118644)"><path
       id="XMLID_99_"
       style="fill:#ffcb05;fill-opacity:1"
       d="M 31,56 C 17.469,56 6.5,43.464 6.5,28 6.5,12.536 17.469,0 31,0 44.531,0 55.5,12.536 55.5,28 55.5,43.464 44.531,56 31,56"
       inkscape:connector-curvature="0" /><path
       id="XMLID_132_"
       style="fill:#dba80b;fill-opacity:1"
       d="M 6.5,28 C 6.5,13.698 15.885,1.908 28,0.216 27.016,0.079 26.016,0 25,0 11.469,0 0.5,12.536 0.5,28 0.5,43.464 11.469,56 25,56 26.016,56 27.016,55.921 28,55.784 15.885,54.092 6.5,42.302 6.5,28"
       inkscape:connector-curvature="0" /><path
       id="XMLID_115_"
       style="fill:#bb9009;fill-opacity:1"
       d="m 31.085,50.524 h -0.086 c -0.7,0 -1.405,-0.042 -2.095,-0.124 -0.549,-0.066 -0.94,-0.563 -0.875,-1.112 0.066,-0.549 0.567,-0.932 1.112,-0.874 0.612,0.073 1.237,0.11 1.858,0.11 0.553,0 1.043,0.448 1.043,1 0,0.552 -0.403,1 -0.957,1 M 36.9,49.447 c -0.404,0 -0.785,-0.247 -0.936,-0.648 -0.195,-0.517 0.066,-1.094 0.583,-1.288 0.576,-0.217 1.151,-0.472 1.706,-0.757 0.492,-0.254 1.094,-0.059 1.347,0.433 0.252,0.491 0.058,1.094 -0.434,1.346 -0.623,0.32 -1.266,0.604 -1.914,0.849 -0.115,0.044 -0.234,0.065 -0.352,0.065 M 23.365,48.683 c -0.152,0 -0.307,-0.035 -0.452,-0.109 -0.615,-0.313 -1.224,-0.664 -1.809,-1.048 -0.462,-0.302 -0.591,-0.921 -0.289,-1.384 0.304,-0.461 0.922,-0.591 1.385,-0.289 0.523,0.343 1.068,0.659 1.618,0.938 0.492,0.25 0.689,0.852 0.439,1.344 -0.176,0.348 -0.528,0.548 -0.892,0.548 m 20.11,-3.558 c -0.254,0 -0.509,-0.097 -0.704,-0.29 -0.392,-0.389 -0.395,-1.022 -0.006,-1.414 0.435,-0.438 0.858,-0.91 1.257,-1.402 0.349,-0.428 0.979,-0.493 1.407,-0.145 0.428,0.348 0.494,0.978 0.145,1.407 -0.441,0.542 -0.908,1.063 -1.389,1.548 -0.196,0.197 -0.454,0.296 -0.71,0.296 M 17.257,43.717 c -0.289,0 -0.576,-0.125 -0.774,-0.365 -0.434,-0.53 -0.851,-1.09 -1.238,-1.665 -0.309,-0.458 -0.188,-1.08 0.27,-1.389 0.457,-0.309 1.079,-0.189 1.388,0.27 0.353,0.524 0.732,1.034 1.127,1.515 0.35,0.427 0.288,1.057 -0.139,1.408 -0.185,0.152 -0.411,0.226 -0.634,0.226 M 47.871,38.58 c -0.134,0 -0.269,-0.027 -0.399,-0.083 -0.507,-0.221 -0.738,-0.81 -0.518,-1.317 0.251,-0.574 0.48,-1.17 0.681,-1.769 0.176,-0.522 0.743,-0.805 1.267,-0.629 0.523,0.177 0.805,0.743 0.629,1.267 -0.22,0.653 -0.47,1.303 -0.743,1.93 -0.165,0.376 -0.533,0.601 -0.917,0.601 M 13.445,36.813 c -0.416,0 -0.805,-0.263 -0.947,-0.678 -0.221,-0.648 -0.417,-1.315 -0.583,-1.983 -0.134,-0.536 0.192,-1.078 0.728,-1.211 0.534,-0.136 1.079,0.192 1.212,0.728 0.153,0.613 0.333,1.226 0.536,1.82 0.178,0.523 -0.101,1.091 -0.623,1.269 -0.106,0.037 -0.216,0.055 -0.323,0.055 M 49.76,30.916 c -0.026,0 -0.052,-0.001 -0.078,-0.003 -0.551,-0.043 -0.962,-0.524 -0.92,-1.075 0.047,-0.606 0.071,-1.225 0.071,-1.838 0,-0.552 0.448,-1.032 1,-1.032 0.552,0 1,0.415 1,0.967 V 28 c 0,0.665 -0.026,1.335 -0.077,1.993 -0.04,0.524 -0.479,0.923 -0.996,0.923 M 12.166,29.011 c -0.552,0 -1,-0.437 -1,-0.989 V 28 c 0,-0.682 0.027,-1.368 0.08,-2.037 0.044,-0.55 0.523,-0.958 1.076,-0.918 0.551,0.044 0.962,0.526 0.918,1.076 -0.049,0.618 -0.074,1.25 -0.074,1.879 0,0.552 -0.448,1.011 -1,1.011 m 36.936,-5.963 c -0.447,0 -0.854,-0.302 -0.968,-0.755 -0.155,-0.615 -0.336,-1.227 -0.54,-1.821 -0.179,-0.522 0.1,-1.091 0.622,-1.27 0.523,-0.181 1.092,0.099 1.27,0.622 0.222,0.646 0.419,1.312 0.587,1.979 0.135,0.536 -0.19,1.079 -0.725,1.214 -0.081,0.022 -0.163,0.031 -0.246,0.031 m -35.67,-1.817 c -0.107,0 -0.215,-0.018 -0.322,-0.054 -0.523,-0.177 -0.803,-0.745 -0.626,-1.268 0.221,-0.65 0.472,-1.299 0.747,-1.928 0.222,-0.507 0.81,-0.736 1.317,-0.516 0.506,0.221 0.737,0.811 0.516,1.317 -0.253,0.577 -0.483,1.173 -0.685,1.769 -0.143,0.417 -0.53,0.68 -0.947,0.68 m 32.47,-5.393 c -0.321,0 -0.635,-0.154 -0.829,-0.44 -0.354,-0.522 -0.734,-1.031 -1.13,-1.512 -0.351,-0.426 -0.29,-1.057 0.136,-1.408 0.426,-0.351 1.057,-0.29 1.408,0.136 0.435,0.529 0.853,1.088 1.242,1.663 0.31,0.457 0.19,1.079 -0.267,1.389 -0.172,0.116 -0.366,0.172 -0.56,0.172 M 17.228,14.317 c -0.222,0 -0.446,-0.074 -0.632,-0.226 -0.428,-0.349 -0.491,-0.979 -0.141,-1.407 0.441,-0.54 0.909,-1.06 1.391,-1.545 0.39,-0.39 1.023,-0.393 1.414,-0.004 0.392,0.39 0.394,1.022 0.005,1.414 -0.436,0.439 -0.861,0.91 -1.262,1.401 -0.196,0.242 -0.484,0.367 -0.775,0.367 m 23.082,-4.03 c -0.187,0 -0.376,-0.052 -0.544,-0.162 C 39.243,9.784 38.697,9.47 38.144,9.191 37.652,8.942 37.454,8.341 37.703,7.848 c 0.249,-0.491 0.849,-0.692 1.343,-0.442 0.618,0.311 1.227,0.662 1.811,1.043 0.463,0.302 0.594,0.922 0.292,1.384 -0.192,0.295 -0.511,0.454 -0.839,0.454 M 23.329,9.337 c -0.364,0 -0.715,-0.199 -0.892,-0.546 -0.251,-0.492 -0.055,-1.094 0.437,-1.345 0.623,-0.317 1.267,-0.602 1.916,-0.844 0.516,-0.194 1.093,0.068 1.287,0.586 0.193,0.517 -0.069,1.093 -0.587,1.287 -0.578,0.216 -1.153,0.469 -1.709,0.753 -0.144,0.074 -0.3,0.109 -0.452,0.109 m 9.606,-1.749 c -0.039,0 -0.078,-0.002 -0.117,-0.007 -0.602,-0.07 -1.214,-0.105 -1.819,-0.105 -0.552,0 -1.021,-0.448 -1.021,-1 0,-0.552 0.427,-1 0.979,-1 h 0.042 c 0.682,0 1.372,0.04 2.05,0.119 0.548,0.063 0.942,0.559 0.878,1.108 -0.058,0.51 -0.492,0.885 -0.992,0.885"
       inkscape:connector-curvature="0" /><path
       id="XMLID_114_"
       style="fill:#a07a0f;fill-opacity:1"
       d="M 6.498,29 H 0.5 c 0.02,0.673 0.058,1.34 0.119,2 H 6.622 C 6.56,30.34 6.519,29.673 6.498,29"
       inkscape:connector-curvature="0" /><path
       id="XMLID_113_"
       style="fill:#a07a0f;fill-opacity:1"
       d="M 6.727,24 H 0.731 c -0.083,0.659 -0.143,1.327 -0.184,2 h 5.999 c 0.042,-0.673 0.098,-1.341 0.181,-2"
       inkscape:connector-curvature="0" /><path
       id="XMLID_112_"
       style="fill:#a07a0f;fill-opacity:1"
       d="M 7.048,34 H 1.047 c 0.13,0.676 0.28,1.343 0.451,2 H 7.497 C 7.327,35.343 7.178,34.676 7.048,34"
       inkscape:connector-curvature="0" /><path
       id="XMLID_111_"
       style="fill:#a07a0f;fill-opacity:1"
       d="M 8.447,39 H 2.443 c 0.255,0.682 0.537,1.347 0.837,2 H 9.281 C 8.981,40.348 8.702,39.681 8.447,39"
       inkscape:connector-curvature="0" /><path
       id="XMLID_110_"
       style="fill:#a07a0f;fill-opacity:1"
       d="M 7.772,19 H 1.779 C 1.584,19.657 1.402,20.322 1.25,21 h 6.007 c 0.152,-0.676 0.321,-1.345 0.515,-2"
       inkscape:connector-curvature="0" /><path
       id="XMLID_109_"
       style="fill:#a07a0f;fill-opacity:1"
       d="m 9.764,14 h -6 c -0.33,0.651 -0.641,1.317 -0.925,2 h 6.004 c 0.284,-0.682 0.591,-1.349 0.921,-2"
       inkscape:connector-curvature="0" /><path
       id="XMLID_108_"
       style="fill:#a07a0f;fill-opacity:1"
       d="M 13.845,8 H 7.838 C 7.269,8.636 6.728,9.303 6.216,10 h 6.005 c 0.513,-0.697 1.055,-1.364 1.624,-2"
       inkscape:connector-curvature="0" /><path
       id="XMLID_107_"
       style="fill:#a07a0f;fill-opacity:1"
       d="M 19.96,3 H 13.947 C 12.925,3.59 11.945,4.258 11.011,5 H 17.02 C 17.955,4.258 18.937,3.59 19.96,3"
       inkscape:connector-curvature="0" /><path
       id="XMLID_106_"
       style="fill:#a07a0f;fill-opacity:1"
       d="M 11.519,45 H 5.516 c 0.464,0.693 0.954,1.36 1.472,2 h 6.007 c -0.518,-0.64 -1.011,-1.307 -1.476,-2"
       inkscape:connector-curvature="0" /><path
       id="XMLID_105_"
       style="fill:#a07a0f;fill-opacity:1"
       d="m 9.832,50 c 0.803,0.723 1.644,1.394 2.524,2 h 6.014 c -0.884,-0.607 -1.734,-1.274 -2.54,-2 z"
       inkscape:connector-curvature="0" /></g><g
     id="g6943"
     transform="matrix(-1,0,0,1,56,0)" /><g
     id="g6945"
     transform="matrix(-1,0,0,1,56,0)" /><g
     id="g6947"
     transform="matrix(-1,0,0,1,56,0)" /><g
     id="g6949"
     transform="matrix(-1,0,0,1,56,0)" /><g
     id="g6951"
     transform="matrix(-1,0,0,1,56,0)" /><g
     id="g6953"
     transform="matrix(-1,0,0,1,56,0)" /><g
     id="g6955"
     transform="matrix(-1,0,0,1,56,0)" /><g
     id="g6957"
     transform="matrix(-1,0,0,1,56,0)" /><g
     id="g6959"
     transform="matrix(-1,0,0,1,56,0)" /><g
     id="g6961"
     transform="matrix(-1,0,0,1,56,0)" /><g
     id="g6963"
     transform="matrix(-1,0,0,1,56,0)" /><g
     id="g6965"
     transform="matrix(-1,0,0,1,56,0)" /><g
     id="g6967"
     transform="matrix(-1,0,0,1,56,0)" /><g
     id="g6969"
     transform="matrix(-1,0,0,1,56,0)" /><g
     id="g6971"
     transform="matrix(-1,0,0,1,56,0)" /></svg>