<?xml version="1.0" encoding="UTF-8" standalone="no"?>
<svg
   xmlns:dc="http://purl.org/dc/elements/1.1/"
   xmlns:cc="http://creativecommons.org/ns#"
   xmlns:rdf="http://www.w3.org/1999/02/22-rdf-syntax-ns#"
   xmlns:svg="http://www.w3.org/2000/svg"
   xmlns="http://www.w3.org/2000/svg"
   xmlns:sodipodi="http://sodipodi.sourceforge.net/DTD/sodipodi-0.dtd"
   xmlns:inkscape="http://www.inkscape.org/namespaces/inkscape"
   id="Capa_1"
   enable-background="new 0 0 511.399 511.399"
   height="512"
   viewBox="0 0 511.399 511.399"
   width="512"
   version="1.1"
   sodipodi:docname="002-basketball-ball.svg"
   inkscape:version="0.92.2 (5c3e80d, 2017-08-06)">
  <metadata
     id="metadata1418">
    <rdf:RDF>
      <cc:Work
         rdf:about="">
        <dc:format>image/svg+xml</dc:format>
        <dc:type
           rdf:resource="http://purl.org/dc/dcmitype/StillImage" />
      </cc:Work>
    </rdf:RDF>
  </metadata>
  <defs
     id="defs1416" />
  <sodipodi:namedview
     pagecolor="#ffffff"
     bordercolor="#666666"
     borderopacity="1"
     objecttolerance="10"
     gridtolerance="10"
     guidetolerance="10"
     inkscape:pageopacity="0"
     inkscape:pageshadow="2"
     inkscape:window-width="1920"
     inkscape:window-height="1017"
     id="namedview1414"
     showgrid="false"
     inkscape:zoom="0.4609375"
     inkscape:cx="-14.101695"
     inkscape:cy="256"
     inkscape:window-x="1912"
     inkscape:window-y="-8"
     inkscape:window-maximized="1"
     inkscape:current-layer="Capa_1" />
  <path
     d="m 91.24454,433.84474 c -3.70887,-3.40522 -15.771651,3.3131 -19.232768,-0.25698 C 34.253678,394.64741 11.23468,346.26009 3.2713629,295.80968 2.4069723,290.33249 14.751107,275.86291 14.751107,275.86291 c 0,0 -14.25768165,-5.63874 -14.43651364,-10.19327 C -2.1192217,203.39309 18.010741,140.22068 61.277131,89.618402 c 1.975134,-2.309474 26.351823,9.720078 26.351823,9.720078 0,0 -10.622242,-26.670441 -5.559554,-31.359518 47.36885,-43.87894 107.86663,-66.6625146 168.86375,-67.8151876 4.81308,-0.09078262 15.20314,12.4678216 15.20314,12.4678216 0,0 9.65508,-11.79061797 14.84977,-11.2812384 48.58617,4.7708352 96.16589,23.4027524 136.30257,56.1711944 3.85203,3.144317 2.61102,19.336832 2.61102,19.336832 0,0 16.0272,-2.615546 19.48899,0.953799 36.01087,37.137967 58.61499,82.869117 67.53819,130.786567 0.95405,5.12373 -9.58685,16.3074 -9.58685,16.3074 0,0 13.03138,8.71177 13.35615,13.5184 4.11484,60.95278 -13.42574,123.27295 -53.16234,174.27873 -4.24063,5.44384 -22.99799,3.17566 -22.99799,3.17566 0,0 5.34244,17.21943 3.20899,19.38491 -46.79181,47.48224 -108.11597,72.92543 -170.45635,75.75406 -4.19026,0.19018 -12.05929,-15.86686 -12.05929,-15.86686 0,0 -12.32468,15.88708 -18.21722,15.46056 -50.86442,-3.67637 -100.94854,-22.48307 -142.900152,-56.73322 -3.851347,-3.14506 0.841632,-16.62843 -2.867238,-20.03365 z"
     id="path1405"
     style="fill:#ff4b00;fill-opacity:1"
     inkscape:connector-curvature="0" />
  <path
     d="m 434.5358,415.87894 c 0,0 18.75736,2.26818 22.99799,-3.17566 39.7366,-51.00578 57.27718,-113.32595 53.16234,-174.27873 -0.32477,-4.80663 -13.35615,-13.5184 -13.35615,-13.5184 0,0 10.54023,-11.18293 9.58617,-16.30667 -8.92319,-47.91744 -31.52731,-93.64859 -67.53819,-130.78656 -3.46111,-3.570082 -19.48899,-0.953799 -19.48899,-0.953799 L 91.676603,434.35003 c 2.880344,4.05775 -1.249684,16.51987 2.435175,19.52836 41.951612,34.25015 92.035732,53.05685 142.900152,56.73322 5.8918,0.42584 18.21722,-15.46056 18.21722,-15.46056 0,0 7.86971,16.0563 12.05997,15.86613 62.3397,-2.8279 123.66454,-28.27182 170.45635,-75.75406 2.13277,-2.16475 -3.20967,-19.38418 -3.20967,-19.38418 z"
     id="path1407"
     inkscape:connector-curvature="0"
     style="fill:#ff4b00" />
  <path
     d="m 332.51548,194.21406 c 26.01785,20.76533 56.54497,35.44971 89.12385,42.75527 29.31037,6.57311 59.6661,7.01142 89.0533,1.45607 -0.67443,-9.9972 -1.934,-19.95741 -3.77139,-29.825 -53.99695,10.71568 -110.52782,-2.63229 -154.04479,-36.56296 l 86.49928,-94.212674 c -3.46259,-3.571434 -7.03397,-7.071697 -10.74357,-10.47759 -3.70961,-3.405894 -7.5022,-6.666696 -11.35496,-9.811689 L 330.76574,151.76142 C 293.30012,111.41574 274.99321,56.044914 280.98427,1.3582191 270.99071,0.37706184 260.95535,-0.02478672 250.93248,0.16451102 247.87058,30.521109 251.14107,61.361881 260.62223,90.46544 c 10.15635,31.17605 27.24584,59.76589 49.78254,83.4726 L 258.75165,230.19722 82.077563,67.987814 c -5.063365,4.689813 -9.983166,9.60918 -14.730857,14.780236 -2.072212,2.256997 -4.079093,4.552255 -6.054903,6.862465 L 238.46237,252.29575 187.01282,308.33321 c -25.54087,-20.43465 -55.48295,-35.0258 -87.411043,-42.48866 -32.625808,-7.62558 -66.68859,-7.64591 -99.27729315,-0.17533 0.39454266,10.08913 1.38325125,20.1536 2.95953515,30.13851 56.687495,-14.1888 117.482731,-1.13538 163.367151,34.70283 L 72.024006,433.57591 c 3.461854,3.57076 7.033968,7.0717 10.743575,10.47759 3.709607,3.40589 7.502197,6.6667 11.354958,9.81169 L 188.73753,350.8131 c 39.67066,42.79239 57.65764,102.0426 48.27533,159.78715 10.08044,0.72832 20.19089,0.86651 30.27522,0.40918 4.61403,-32.51141 1.92538,-65.80461 -7.99544,-97.21648 -10.05508,-31.83788 -27.28663,-61.00342 -50.19414,-85.15646 l 51.4624,-56.05146 177.16984,162.66456 c 2.13486,-2.16554 4.24934,-4.36064 6.32155,-6.61764 4.7477,-5.17106 9.22995,-10.49215 13.47198,-15.93605 L 280.85018,250.4865 Z"
     id="path1409"
     style="fill:#002c3c;fill-opacity:1"
     inkscape:connector-curvature="0" />
  <path
     d="m 437.73074,435.24959 c 2.13486,-2.16554 4.24934,-4.36064 6.32155,-6.61764 4.7477,-5.17106 9.22995,-10.49215 13.47198,-15.93605 L 280.85018,250.4865 332.51616,194.21332 c 26.01785,20.76533 56.54497,35.44971 89.12385,42.75527 29.31037,6.57312 59.6661,7.01142 89.0533,1.45608 -0.67443,-9.99721 -1.934,-19.95741 -3.77139,-29.82501 -53.99696,10.71568 -110.52782,-2.63229 -154.0448,-36.56295 l 86.49861,-94.211944 c -3.46259,-3.571434 -7.03397,-7.071697 -10.74357,-10.47759 L 82.768257,444.05276 c 3.709607,3.4059 7.502198,6.6667 11.354958,9.81169 L 188.73753,350.8131 c 39.67066,42.79239 57.65764,102.0426 48.27533,159.78715 10.08044,0.72832 20.19089,0.86651 30.27522,0.40918 4.61403,-32.51141 1.92538,-65.80461 -7.99544,-97.21648 -10.05508,-31.83788 -27.28663,-61.00342 -50.19414,-85.15646 l 51.4624,-56.05146 z"
     id="path1411"
     inkscape:connector-curvature="0"
     style="fill:#002c3c" />
</svg>
