<svg id="Capa_1" enable-background="new 0 0 512 512" height="512" viewBox="0 0 512 512" width="512" xmlns="http://www.w3.org/2000/svg"><path d="m174.562 252.058c9.469 33.056 27.142 141.571 35.141 207.701 1.915 15.833 18.314 25.37 33.133 19.474 19.77-7.866 44.81-6.798 62.543 7.122 9.051 7.105 21.57 7.105 30.62 0 17.733-13.92 42.773-14.988 62.543-7.122 14.819 5.896 31.218-3.641 33.133-19.474 7.999-66.13 25.672-174.645 35.141-207.701z" fill="#fcf2d0"/><path d="m174.561 252.058c9.47 33.056 27.142 141.571 35.141 207.701 1.915 15.833 18.314 25.37 33.133 19.474 19.77-7.866 44.81-6.798 62.544 7.122 4.346 3.412 9.493 5.167 14.671 5.302-49.46-41.149-72.077-157.704-58.582-239.599z" fill="#f6e3a3"/><path d="m412.191 329.51c-2.93-2.929-7.678-2.929-10.607 0l-34.03 34.03-29.906-29.906 1.573-1.573c2.929-2.929 2.929-7.678 0-10.607s-7.677-2.929-10.607 0l-1.573 1.573-7.745-7.745c-2.93-2.929-7.678-2.929-10.607 0s-2.929 7.678 0 10.606l7.745 7.745-27.588 27.588-7.744-7.744c-2.929-2.929-7.677-2.93-10.607 0-2.929 2.929-2.929 7.678 0 10.606l7.745 7.745-29.058 29.058c-2.929 2.929-2.929 7.678 0 10.606 1.465 1.465 3.384 2.197 5.304 2.197 1.919 0 3.839-.732 5.304-2.197l29.058-29.057 29.907 29.907-10.464 10.465c-2.929 2.929-2.929 7.678 0 10.606 1.465 1.464 3.385 2.197 5.304 2.197s3.839-.732 5.304-2.197l10.464-10.464 10.468 10.468c1.465 1.465 3.384 2.197 5.304 2.197 1.919 0 3.839-.732 5.304-2.197 2.929-2.929 2.929-7.678 0-10.606l-10.468-10.468 27.588-27.588 10.468 10.468c1.465 1.464 3.385 2.197 5.304 2.197s3.839-.732 5.304-2.197c2.929-2.929 2.929-7.678 0-10.606l-10.469-10.469 34.03-34.03c2.924-2.931 2.924-7.68-.005-10.608zm-82.832 72.225-29.907-29.907 27.588-27.588 29.907 29.907z" fill="#f6e3a3"/><path d="m480.898 279.793h-320.417c-13.035 0-23.602-10.567-23.602-23.602v-8.264c0-13.035 10.567-23.602 23.602-23.602h320.417c13.035 0 23.602 10.567 23.602 23.602v8.264c0 13.035-10.567 23.602-23.602 23.602z" fill="#8eafe2"/><path d="m346.714 224.324h-186.233c-13.035 0-23.602 10.567-23.602 23.602v8.264c0 13.035 10.567 23.602 23.602 23.602h191.994c-6.237-13.219-9.778-37.596-5.761-55.468z" fill="#6a96d7"/><circle cx="158.916" cy="171.76" fill="#eea849" r="151.416"/><g fill="#e9901b"><path d="m240.34 299.445c-105.05-39.484-163.792-186.902-133.541-269.877-20.049 7.334-38.861 19.035-54.95 35.124-59.132 59.132-59.132 155.003 0 214.135 51.189 51.189 129.905 58.055 188.491 20.618z"/><circle cx="209.709" cy="74.568" r="7.122"/><path d="m207.623 272.435c-2.782-2.781-7.291-2.781-10.073 0-2.781 2.781-2.781 7.291 0 10.073 2.781 2.781 7.291 2.781 10.073 0 2.782-2.782 2.782-7.292 0-10.073z"/><path d="m261.036 211.834c-2.781-2.781-7.291-2.781-10.073 0-2.781 2.781-2.781 7.291 0 10.072 2.781 2.782 7.291 2.782 10.073 0 2.782-2.781 2.782-7.29 0-10.072z"/><circle cx="227.392" cy="188.173" r="7.122"/><circle cx="266.805" cy="120.685" r="7.122"/></g><path d="m480.897 216.824h-169.616c2.184-7.43 3.814-14.99 4.893-22.614.171-.645.257-1.293.255-1.934 6.098-47.228-8.942-96.688-45.141-132.888-21.507-21.506-48.504-36.313-78.075-42.82-28.782-6.334-58.681-4.589-86.469 5.046-3.913 1.356-5.986 5.629-4.629 9.543 1.357 3.913 5.627 5.987 9.543 4.629 7.111-2.466 14.378-4.34 21.729-5.66 10.924 28.931 33.588 62.251 63.388 93.166l-37.859 37.859-96.323-96.321c5.39-4.862 11.132-9.314 17.141-13.282 3.456-2.283 4.408-6.935 2.126-10.392s-6.935-4.407-10.392-2.126c-8.918 5.89-17.304 12.74-24.923 20.359-30.015 30.015-46.545 69.923-46.545 112.371s16.53 82.355 46.545 112.371c30.981 30.981 71.677 46.471 112.372 46.471 6.849 0 13.697-.45 20.499-1.327.012 0 .024.003.036.003.595 0 1.198-.096 1.798-.245.443-.062.885-.129 1.328-.195 7.539 43.466 15.15 94.386 19.679 131.823 1.186 9.807 6.732 18.32 15.217 23.358 8.571 5.09 18.826 5.887 28.134 2.183 19.119-7.608 40.763-5.233 55.14 6.053 5.871 4.608 12.906 6.912 19.942 6.912s14.071-2.304 19.941-6.912c14.376-11.285 36.018-13.661 55.14-6.053 9.308 3.703 19.561 2.908 28.134-2.183 8.484-5.038 14.031-13.552 15.217-23.358 1.022-8.441 2.225-17.761 3.575-27.704.558-4.104-2.317-7.884-6.422-8.441-4.1-.561-7.884 2.317-8.441 6.422-1.36 10.015-2.573 19.409-3.603 27.922-.623 5.149-3.533 9.619-7.984 12.262-4.54 2.695-9.983 3.112-14.931 1.143-23.991-9.546-51.446-6.332-69.946 8.191-6.287 4.935-15.07 4.935-21.359 0-18.5-14.522-45.957-17.737-69.946-8.191-4.951 1.97-10.392 1.552-14.931-1.143-4.451-2.643-7.361-7.112-7.984-12.262-4.568-37.769-12.251-89.153-19.85-132.931 25.754-6.366 50.212-19.244 70.73-38.635h183.154c-5.588 28.419-12.246 67.73-18.197 107.597-.611 4.097 2.214 7.914 6.31 8.525.376.056.748.083 1.117.083 3.651 0 6.852-2.672 7.408-6.394 6.127-41.039 12.996-81.441 18.652-109.812h14.425c17.15 0 31.103-13.952 31.103-31.102v-8.264c-.002-17.15-13.954-31.103-31.105-31.103zm-178.489-34.932c-25.986-10.633-56.548-31.815-84.416-58.602l47.854-47.854c27.022 29.962 39.208 68.635 36.562 106.456zm-153.648-153.683c13.742-.967 27.623.015 41.23 3.009 24.332 5.354 46.729 16.938 65.235 33.626l-47.839 47.839c-26.807-27.887-48.001-58.475-58.626-84.474zm-96.774 47.228 96.324 96.323-37.859 37.859c-30.897-29.782-64.195-52.436-93.113-63.367 4.582-25.645 16.125-50.278 34.648-70.815zm-36.562 86.19c25.986 10.633 56.549 31.815 84.416 58.602l-47.854 47.854c-27.022-29.962-39.208-68.635-36.562-106.456zm47.169 117.062 47.854-47.854c26.787 27.868 47.969 58.431 58.602 84.417-37.822 2.646-76.494-9.541-106.456-36.563zm121.831 34.65c-10.931-28.918-33.585-62.216-63.367-93.113l37.86-37.859 96.324 96.323c-20.539 18.523-45.172 30.067-70.817 34.649zm81.423-45.256-96.323-96.323 37.859-37.859c30.897 29.782 64.195 52.436 93.112 63.367-4.582 25.644-16.126 50.277-34.648 70.815zm231.153-11.892c0 8.879-7.224 16.102-16.103 16.102h-20.507c-.036 0-.071 0-.107 0h-178.285c10.194-12.462 18.208-26.121 24.043-40.468h174.856c8.879 0 16.103 7.223 16.103 16.102z"/></svg>