<svg id="Layer_5" enable-background="new 0 0 64 64" height="512" viewBox="0 0 64 64" width="512" xmlns="http://www.w3.org/2000/svg"><path d="m10 1v62h44v-62zm31.816 2c-.414 1.161-1.514 2-2.816 2h-14c-1.302 0-2.402-.839-2.816-2zm-19.632 58c.414-1.161 1.514-2 2.816-2h14c1.302 0 2.402.839 2.816 2zm29.816 0h-8.101c-.465-2.279-2.484-4-4.899-4h-14c-2.414 0-4.434 1.721-4.899 4h-8.101v-58h8.101c.465 2.279 2.485 4 4.899 4h14c2.414 0 4.434-1.721 4.899-4h8.101z"/><path d="m48.293 21.293-3.293 3.293-3.293-3.293-1.414 1.414 3.293 3.293-3.293 3.293 1.414 1.414 3.293-3.293 3.293 3.293 1.414-1.414-3.293-3.293 3.293-3.293z"/><path d="m35.707 18.707 3.293-3.293 3.293 3.293 1.414-1.414-3.293-3.293 3.293-3.293-1.414-1.414-3.293 3.293-3.293-3.293-1.414 1.414 3.293 3.293-3.293 3.293z"/><path d="m36.293 21.293-3.293 3.293-3.293-3.293-1.414 1.414 3.293 3.293-3.293 3.293 1.414 1.414 3.293-3.293 3.293 3.293 1.414-1.414-3.293-3.293 3.293-3.293z"/><path d="m30.293 32.293-3.293 3.293-3.293-3.293-1.414 1.414 3.293 3.293-3.293 3.293 1.414 1.414 3.293-3.293 3.293 3.293 1.414-1.414-3.293-3.293 3.293-3.293z"/><path d="m16 32.763c0-4.01 1.73-7.824 4.749-10.464l8.88-7.77-.618 4.33 1.979.283 1.189-8.32-8.32 1.189.283 1.979 3.664-.523-8.374 7.327c-3.453 3.02-5.432 7.383-5.432 11.969 0 6.534 4.097 12.5 10.195 14.845l3.446 1.325.718-1.867-3.446-1.325c-5.331-2.051-8.913-7.265-8.913-12.978z"/><path d="m36 44c-2.206 0-4 1.794-4 4s1.794 4 4 4 4-1.794 4-4-1.794-4-4-4zm0 6c-1.103 0-2-.897-2-2s.897-2 2-2 2 .897 2 2-.897 2-2 2z"/><path d="m46 44c-2.206 0-4 1.794-4 4s1.794 4 4 4 4-1.794 4-4-1.794-4-4-4zm0 6c-1.103 0-2-.897-2-2s.897-2 2-2 2 .897 2 2-.897 2-2 2z"/><path d="m46 34c-2.206 0-4 1.794-4 4s1.794 4 4 4 4-1.794 4-4-1.794-4-4-4zm0 6c-1.103 0-2-.897-2-2s.897-2 2-2 2 .897 2 2-.897 2-2 2z"/><path d="m14 5h2v2h-2z"/><path d="m14 9h2v2h-2z"/><path d="m14 13h2v2h-2z"/><path d="m14 57h2v2h-2z"/><path d="m14 53h2v2h-2z"/><path d="m14 49h2v2h-2z"/></svg>