<?xml version="1.0" encoding="UTF-8"?>
<svg width="512" height="511.99" enable-background="new 0 0 512 512" version="1.1" viewBox="0 0 512 511.99" xmlns="http://www.w3.org/2000/svg" xmlns:cc="http://creativecommons.org/ns#" xmlns:dc="http://purl.org/dc/elements/1.1/" xmlns:rdf="http://www.w3.org/1999/02/22-rdf-syntax-ns#">
 <metadata>
  <rdf:RDF>
   <cc:Work rdf:about="">
    <dc:format>image/svg+xml</dc:format>
    <dc:type rdf:resource="http://purl.org/dc/dcmitype/StillImage"/>
    <dc:title/>
   </cc:Work>
  </rdf:RDF>
 </metadata>
 <path d="m82.624 146.01-75.124 180.87 35.515-0.034-35.515 177.65 177.65-35.515-0.034 35.514 180.87-75.124c27.14-10.658 52.583-26.938 74.517-48.873 85.33-85.33 85.33-223.68 0-309.01-85.33-85.33-223.68-85.33-309.01 0-21.934 21.935-38.215 47.378-48.873 74.518z" fill="#fbbd61"/>
 <path d="m467.51 213.49c-4.93-93.66-90.692-168.23-169.13-175.43l-200.47 200.3c2.87 44.04 21.14 87.26 54.8 120.92s76.88 51.93 120.92 54.8z" fill="#fe7453"/>
 <path d="m298.37 37.904c0 0.05 0.01 0.11 0.01 0.16l-5.905 5.905-6.475-6.475c4.13 0 8.25 0.13 12.37 0.41z" fill="#db3f3d"/>
 <path d="m298.38 38.064c-4.09-0.38-8.22-0.57-12.38-0.57-48.24 0-96.48 18.4-133.29 55.21-39.95 39.95-58.22 93.38-54.8 145.66 52.28 3.42 105.71-14.84 145.66-54.8 39.92-39.91 58.18-93.27 54.81-145.5z" fill="#ff4f4d"/>
 <path d="m467.51 213.49c0.2 3.96-0.23237 10.381-0.23237 14.401 0 104.11-93.74 186.6-181.28 186.6-4.13 0-8.25-0.13-12.37-0.41-3.42-52.28 14.84-105.71 54.8-145.66 32.34-32.35 96.832-51.012 139.08-54.932z" fill="#ff4f4d"/>
 <path d="m147.41 364.59c38.21 38.21 88.401 57.315 138.59 57.315s100.38-19.105 138.59-57.315c76.42-76.42 76.42-200.76 0-277.19-76.422-76.42-200.77-76.42-277.19 0-76.42 76.421-76.42 200.77 0 277.19zm-41.285-118.39c1.374 0.029 2.748 0.067 4.12 0.067 49.344-1e-3 96.958-18.618 133.22-52.204l31.932 31.932-122.57 122.57c-26.309-28.53-42.484-64.117-46.705-102.36zm147.94-62.745c34.498-37.247 53.189-86.467 52.15-137.24 37.075 4.133 73.109 19.671 102.35 46.609l-122.57 122.56zm31.933 53.146 31.933 31.933c-34.498 37.247-53.189 86.467-52.15 137.24-37.076-4.132-73.105-19.669-102.35-46.61zm-5.186 170.23c-1.32-47.179 15.819-93 47.734-127.68l80.017 80.017c-35.897 33.071-82.021 48.961-127.75 47.662zm138.36-58.269-80.017-80.017c34.677-31.915 80.497-49.051 127.68-47.733 1.299 45.729-14.591 91.853-47.662 127.75zm46.609-142.78c-50.774-1.041-99.995 17.651-137.24 52.148l-31.933-31.933 122.56-122.56c26.941 29.244 42.478 65.272 46.609 102.35zm-179.78-160.7c1.729 0 3.458 0.033 5.186 0.082 1.32 47.179-15.818 93-47.733 127.68l-80.017-80.017c34.543-31.825 78.543-47.744 122.56-47.744zm-133.17 58.347 80.022 80.022c-33.435 30.771-77.225 47.818-122.61 47.817-1.717 0-3.439-0.035-5.161-0.084-0.048-1.726-0.079-3.454-0.079-5.188-1e-3 -45.837 16.933-89.067 47.826-122.57z"/>
 <path d="m445.81 66.187c-40.774-40.773-94.951-64.237-152.56-66.071-57.327-1.822-112.63 17.881-155.71 55.487-3.121 2.724-3.442 7.462-0.718 10.582 2.725 3.121 7.463 3.442 10.582 0.718 83.203-72.633 209.62-68.286 287.79 9.891 82.269 82.269 82.269 216.13 0 298.4-20.692 20.692-44.901 36.571-71.955 47.195-0.046 0.018-0.091 0.036-0.136 0.055l-170.48 70.81 0.024-24.267c2e-3 -2.248-1.004-4.378-2.742-5.805-1.737-1.426-4.022-1.998-6.228-1.557l-166.62 33.31 33.31-166.62c0.441-2.205-0.131-4.49-1.557-6.228-1.425-1.736-3.552-2.742-5.798-2.742-7e-3 0-24.274 0.023-24.274 0.023l70.81-170.48c0.019-0.045 0.037-0.09 0.055-0.136 8.811-22.438 21.363-43.079 37.308-61.349 2.724-3.121 2.401-7.859-0.719-10.583-3.121-2.723-7.858-2.401-10.583 0.719-17.063 19.551-30.5 41.642-39.941 65.659l-75.097 180.81c-0.962 2.316-0.703 4.959 0.69 7.043 1.392 2.083 3.731 3.333 6.236 3.333 7e-3 0 26.365-0.025 26.365-0.025l-33.719 168.67c-0.492 2.459 0.278 5 2.051 6.773 1.42 1.42 3.334 2.197 5.303 2.197 0.489 0 0.981-0.048 1.47-0.146l168.67-33.72-0.026 26.358c-2e-3 2.507 1.249 4.85 3.333 6.243 2.085 1.394 4.729 1.653 7.044 0.69l180.81-75.097c28.958-11.382 54.866-28.38 77.01-50.523 42.685-42.684 66.193-99.438 66.193-159.8s-23.508-117.12-66.193-159.81z"/>
</svg>
