<svg id="Layer_3" enable-background="new 0 0 64 64" height="512" viewBox="0 0 64 64" width="512" xmlns="http://www.w3.org/2000/svg"><path d="m43.049 30.537-3.342-3.819c-1.873-2.14-3.278-4.593-4.177-7.291-.249-.747-.612-1.43-1.048-2.051.726-.706 1.492-1.365 2.295-1.977 2.816 4.353 6.848 7.729 11.647 9.763zm6.906-6.906c-4.785-1.843-8.8-5.109-11.546-9.385 1.228-.791 2.525-1.47 3.874-2.039.659.778 1.531 1.382 2.569 1.693 4.023 1.207 7.61 3.71 10.148 7.053v.143c-.268-.059-.543-.096-.829-.096-1.022 0-1.984.398-2.707 1.122zm5.385-13.232c-.216.491-.34 1.031-.34 1.601v5.887c-2.62-2.743-5.931-4.81-9.573-5.903-.402-.121-.763-.314-1.081-.555 2.037-.656 4.169-1.054 6.348-1.163l4.456-.223c.066.117.126.237.19.356zm-1.524-2.291-3.223.162c-2.562.128-5.061.638-7.437 1.463-.099-.321-.156-.659-.156-1.01 0-1.298.721-2.465 1.882-3.046l3.342-1.671c2.172.867 4.094 2.27 5.592 4.102zm-8.459-4.905-1.369.684c-1.843.923-2.988 2.776-2.988 4.836 0 .606.099 1.191.283 1.739-1.345.582-2.644 1.263-3.877 2.051-.094-.177-.203-.343-.293-.523l-2.927-5.854c2.409-1.958 5.475-3.136 8.814-3.136.801 0 1.587.074 2.357.203zm-12.685 4.378 2.651 5.303c.134.267.294.515.436.776-.923.691-1.802 1.44-2.633 2.245-1.081-.918-2.388-1.558-3.823-1.795.524-2.484 1.717-4.719 3.369-6.529zm-3.672 9.419c0-.304.026-.601.046-.901 1.006.179 1.927.62 2.7 1.251-.84.944-1.616 1.949-2.32 3.012-.268-1.079-.426-2.201-.426-3.362zm1.271 5.796c.808-1.406 1.745-2.716 2.795-3.922.224.372.424.761.566 1.186.984 2.951 2.521 5.634 4.57 7.975l2.401 2.744c-4.607-.799-8.442-3.851-10.332-7.983zm30.729 5.79-10.707 10.707c-.188.187-.293.442-.293.707v9h-8v-14.586l10.878-10.878c.346-.346.805-.536 1.293-.536 1.009 0 1.829.82 1.829 1.829 0 .488-.19.947-.536 1.293l-5.171 5.171 1.414 1.414 5.171-5.171c.724-.724 1.122-1.685 1.122-2.707 0-.987-.385-1.878-1-2.558v-10.271c0-1.103.897-2 2-2s2 .897 2 2z"/><path d="m24.586 41-2.086 2.086-2.086-2.086zm-14.937 10.765 2.351-2.351 2.086 2.086-3.741 3.741c-.191-1.167-.419-2.327-.696-3.476zm9.351-5.179-2.086-2.086 2.086-2.086 2.086 2.086zm3.5-.672 2.086 2.086-2.086 2.086-2.086-2.086zm-4.914 2.086-2.086 2.086-2.086-2.086 2.086-2.086zm-5.586-1.414-2.086-2.086 2.086-2.086 2.086 2.086zm-1.414 1.414-1.537 1.537c-.466-1.596-1.007-3.168-1.635-4.709zm4.914 4.914 2.086 2.086-2.086 2.086-2.086-2.086zm1.414-1.414 2.086-2.086 2.086 2.086-2.086 2.086zm5.586 1.414 2.086 2.086-2.086 2.086-2.086-2.086zm3.5.672-2.086-2.086 2.086-2.086 2.086 2.086zm1.414-5.586 2.086-2.086.483.483c-.381 1.035-.723 2.082-1.032 3.14zm-1.414-1.414-2.086-2.086 2.086-2.086 2.086 2.086zm-8.414-5.586-2.086 2.086-2.086-2.086zm-7 0-2.086 2.086-2.086-2.086zm1.414 19.586-1.146-1.146c-.044-.585-.101-1.169-.166-1.752l.019.019 1.293-1.293 2.086 2.086zm7 0-2.086-2.086 2.086-2.086 2.086 2.086zm7 0-2.086-2.086 3.832-3.832c-.278 1.578-.479 3.17-.599 4.771zm4.783-16.217-3.369-3.369h4.941c-.568 1.103-1.092 2.227-1.572 3.369zm4.217-5.369h-32v-2h32z"/></svg>