<?xml version="1.0" encoding="UTF-8" standalone="no"?>
<!-- Generator: Adobe Illustrator 19.0.0, SVG Export Plug-In . SVG Version: 6.00 Build 0)  -->

<svg
   xmlns:dc="http://purl.org/dc/elements/1.1/"
   xmlns:cc="http://creativecommons.org/ns#"
   xmlns:rdf="http://www.w3.org/1999/02/22-rdf-syntax-ns#"
   xmlns:svg="http://www.w3.org/2000/svg"
   xmlns="http://www.w3.org/2000/svg"
   xmlns:sodipodi="http://sodipodi.sourceforge.net/DTD/sodipodi-0.dtd"
   xmlns:inkscape="http://www.inkscape.org/namespaces/inkscape"
   version="1.1"
   id="Layer_1"
   x="0px"
   y="0px"
   viewBox="0 0 512 512"
   style="enable-background:new 0 0 512 512;"
   xml:space="preserve"
   sodipodi:docname="005-like.svg"
   inkscape:version="0.92.2 (5c3e80d, 2017-08-06)"><metadata
     id="metadata1359"><rdf:RDF><cc:Work
         rdf:about=""><dc:format>image/svg+xml</dc:format><dc:type
           rdf:resource="http://purl.org/dc/dcmitype/StillImage" /></cc:Work></rdf:RDF></metadata><defs
     id="defs1357" /><sodipodi:namedview
     pagecolor="#ffffff"
     bordercolor="#666666"
     borderopacity="1"
     objecttolerance="10"
     gridtolerance="10"
     guidetolerance="10"
     inkscape:pageopacity="0"
     inkscape:pageshadow="2"
     inkscape:window-width="1920"
     inkscape:window-height="1017"
     id="namedview1355"
     showgrid="false"
     inkscape:zoom="0.921875"
     inkscape:cx="-19.401376"
     inkscape:cy="188.65771"
     inkscape:window-x="1912"
     inkscape:window-y="-8"
     inkscape:window-maximized="1"
     inkscape:current-layer="Layer_1" /><path
     style="fill:#e89f00;fill-opacity:1"
     d="M259.605,21.498l30.231-11.424c3.372-1.274,7.167-0.673,9.98,1.581l25.222,20.207  c1.938,1.553,4.376,2.345,6.856,2.228l32.283-1.523c3.601-0.17,7.024,1.574,9.003,4.588l17.743,27.012  c1.363,2.076,3.436,3.582,5.832,4.237l31.173,8.527c3.477,0.951,6.193,3.667,7.144,7.144l8.527,31.173  c0.655,2.395,2.161,4.469,4.237,5.832l27.012,17.743c3.013,1.98,4.758,5.402,4.588,9.003l-1.523,32.283  c-0.117,2.48,0.676,4.918,2.228,6.856l20.207,25.222c2.254,2.813,2.855,6.608,1.581,9.98l-11.424,30.231  c-0.878,2.323-0.878,4.886,0,7.209l11.424,30.231c1.274,3.372,0.673,7.167-1.581,9.98l-20.207,25.222  c-1.553,1.938-2.345,4.376-2.228,6.856l1.523,32.283c0.17,3.601-1.574,7.024-4.588,9.003l-27.012,17.743  c-2.076,1.363-3.582,3.436-4.237,5.832l-8.527,31.173c-0.951,3.477-3.667,6.193-7.144,7.144l-31.173,8.527  c-2.395,0.655-4.469,2.161-5.832,4.237l-17.743,27.012c-1.98,3.013-5.402,4.758-9.003,4.588l-32.283-1.523  c-2.48-0.117-4.918,0.676-6.856,2.228l-25.222,20.207c-2.813,2.254-6.608,2.855-9.98,1.581l-30.231-11.424  c-2.323-0.878-4.886-0.878-7.209,0l-30.231,11.424c-3.372,1.274-7.167,0.673-9.98-1.581l-25.222-20.207  c-1.938-1.553-4.376-2.345-6.856-2.228l-32.283,1.523c-3.601,0.17-7.024-1.574-9.003-4.588l-17.743-27.012  c-1.363-2.076-3.436-3.582-5.832-4.237l-31.173-8.527c-3.477-0.951-6.193-3.667-7.144-7.144l-8.527-31.173  c-0.655-2.395-2.161-4.469-4.237-5.832L37.154,373.18c-3.013-1.98-4.758-5.402-4.588-9.003l1.523-32.283  c0.117-2.481-0.676-4.918-2.228-6.856l-20.207-25.222c-2.254-2.813-2.855-6.608-1.581-9.98l11.424-30.231  c0.878-2.323,0.878-4.886,0-7.209l-11.424-30.233c-1.274-3.372-0.673-7.167,1.581-9.98l20.207-25.222  c1.553-1.938,2.345-4.376,2.228-6.856l-1.523-32.283c-0.17-3.601,1.574-7.024,4.588-9.003l27.012-17.743  c2.076-1.363,3.582-3.436,4.237-5.832l8.527-31.173c0.951-3.477,3.667-6.193,7.144-7.144l31.173-8.527  c2.395-0.655,4.469-2.161,5.832-4.237l17.743-27.012c1.98-3.013,5.402-4.758,9.003-4.588l32.283,1.523  c2.48,0.118,4.918-0.676,6.856-2.228l25.222-20.207c2.813-2.254,6.608-2.855,9.98-1.581l30.231,11.424  C254.718,22.375,257.282,22.375,259.605,21.498z"
     id="path1292" /><path
     style="fill:#895d16;fill-opacity:1"
     d="M332.961,435.573c-141.679,0-256.534-114.854-256.534-256.534c0-37.945,8.304-73.929,23.089-106.334  l-15.441,4.224c-3.477,0.951-6.193,3.667-7.144,7.144l-8.528,31.173c-0.655,2.395-2.161,4.469-4.237,5.833l-27.012,17.743  c-3.013,1.98-4.758,5.402-4.588,9.002l1.523,32.283c0.117,2.48-0.676,4.918-2.228,6.856l-20.207,25.222  c-2.254,2.813-2.855,6.608-1.581,9.979l11.424,30.231c0.878,2.323,0.878,4.886,0,7.209l-11.424,30.231  c-1.274,3.372-0.673,7.167,1.581,9.98l20.207,25.222c1.553,1.938,2.345,4.376,2.228,6.856l-1.523,32.283  c-0.17,3.601,1.574,7.024,4.588,9.003l27.012,17.743c2.075,1.363,3.582,3.436,4.237,5.832l8.528,31.173  c0.951,3.477,3.667,6.193,7.144,7.146l31.173,8.528c2.395,0.655,4.469,2.161,5.832,4.237l17.743,27.012  c1.98,3.013,5.402,4.757,9.003,4.588l32.282-1.523c2.481-0.117,4.919,0.676,6.857,2.228l25.222,20.207  c2.813,2.253,6.608,2.855,9.979,1.581l30.231-11.424c2.323-0.878,4.886-0.878,7.209,0l30.231,11.424  c3.372,1.274,7.167,0.673,9.979-1.581l25.222-20.207c1.938-1.552,4.376-2.344,6.857-2.228l32.282,1.523  c3.601,0.17,7.024-1.574,9.003-4.588l17.743-27.012c1.363-2.075,3.436-3.582,5.832-4.237l31.173-8.528  c3.477-0.951,6.193-3.667,7.144-7.146l4.224-15.441C406.889,427.27,370.905,435.573,332.961,435.573z"
     id="path1294" /><circle
     style="fill:#ffc705;fill-opacity:1"
     cx="255.999"
     cy="256"
     r="196.676"
     id="circle1296" /><path
     style="fill:#e89f00;fill-opacity:1"
     d="M336.537,395.929c-1.436-2.393-3.93-3.919-6.707-4.203c-99.11-10.134-176.444-93.801-176.444-195.585  c0-25.788,4.99-50.401,14.024-72.961c2.306-5.757-4.134-10.967-9.218-7.416c-49.284,34.42-79.609,94.099-72.069,160.304  c8.767,76.978,70.306,139.279,147.113,149.444c36.326,4.808,70.523-2.121,99.925-17.162  C337.672,406.043,339.144,400.275,336.537,395.929L336.537,395.929z"
     id="path1298" /><g
     id="g1310" /><path
     d="M497.71,256l13.772-36.443c1.003-2.651,0.53-5.634-1.243-7.847l-24.359-30.404l1.836-38.915  c0.134-2.83-1.238-5.523-3.606-7.078l-32.562-21.389l-10.278-37.578c-0.748-2.734-2.884-4.87-5.617-5.617l-37.578-10.278  L376.686,27.89c-1.556-2.369-4.248-3.735-7.078-3.606l-38.915,1.836L300.289,1.761c-2.212-1.772-5.195-2.245-7.847-1.243  l-36.443,13.772L219.558,0.519c-2.653-1.003-5.635-0.53-7.847,1.243l-30.404,24.359l-38.915-1.836  c-2.844-0.134-5.523,1.238-7.078,3.606l-21.389,32.562L76.348,70.731c-2.734,0.748-4.87,2.884-5.617,5.617l-10.278,37.578  l-32.562,21.389c-2.369,1.556-3.74,4.248-3.606,7.078l1.836,38.915L1.762,211.711c-1.772,2.212-2.245,5.195-1.243,7.847L14.29,256  L0.518,292.442c-1.003,2.651-0.53,5.634,1.243,7.847l24.359,30.404l-1.836,38.915c-0.134,2.83,1.238,5.523,3.606,7.078  l32.562,21.389l10.278,37.578c0.748,2.734,2.884,4.87,5.617,5.617l37.578,10.278l21.389,32.562c1.556,2.369,4.253,3.732,7.078,3.606  l38.915-1.836l30.404,24.359c2.212,1.773,5.196,2.246,7.847,1.243l36.443-13.772l36.443,13.772c0.92,0.347,1.879,0.517,2.833,0.517  c1.796,0,3.569-0.603,5.013-1.76l30.404-24.359l38.915,1.836c2.839,0.126,5.522-1.238,7.078-3.606l21.389-32.562l37.578-10.278  c2.734-0.748,4.87-2.884,5.617-5.617l10.278-37.578l32.562-21.389c2.369-1.556,3.74-4.248,3.606-7.078l-1.836-38.915l24.359-30.404  c1.772-2.212,2.245-5.195,1.243-7.847L497.71,256z M481.641,258.834l13.226,34.999l-23.394,29.199  c-1.221,1.523-1.844,3.44-1.752,5.39l1.764,37.373l-31.272,20.541c-1.631,1.071-2.817,2.702-3.332,4.586l-9.871,36.089  l-36.089,9.871c-1.883,0.515-3.513,1.7-4.586,3.332l-20.541,31.272l-37.373-1.764c-1.951-0.09-3.867,0.531-5.39,1.752  l-29.199,23.394l-34.999-13.226c-0.913-0.345-1.874-0.517-2.834-0.517c-0.96,0-1.921,0.173-2.834,0.517l-34.999,13.226  l-29.199-23.394c-1.523-1.221-3.443-1.842-5.39-1.752l-37.373,1.764l-20.541-31.272c-1.071-1.631-2.702-2.817-4.586-3.332  l-36.089-9.871l-9.871-36.089c-0.515-1.883-1.7-3.513-3.332-4.586l-31.271-20.541l1.764-37.373c0.092-1.951-0.531-3.867-1.752-5.39  l-23.394-29.199l13.226-34.999c0.691-1.826,0.691-3.842,0-5.668l-13.226-34.999l23.394-29.199c1.221-1.523,1.844-3.44,1.752-5.39  l-1.764-37.373l31.271-20.541c1.631-1.071,2.817-2.702,3.332-4.586l9.871-36.089l36.089-9.871c1.883-0.515,3.513-1.7,4.586-3.332  l20.541-31.271l37.373,1.764c1.948,0.091,3.867-0.531,5.39-1.752l29.199-23.394l34.999,13.226c1.827,0.691,3.842,0.691,5.668,0  l34.999-13.226l29.199,23.394c1.523,1.222,3.441,1.844,5.39,1.752l37.373-1.764l20.541,31.271c1.071,1.631,2.702,2.817,4.586,3.332  l36.089,9.871l9.871,36.089c0.515,1.883,1.7,3.513,3.332,4.586l31.271,20.541l-1.764,37.373c-0.092,1.951,0.531,3.867,1.752,5.39  l23.394,29.199l-13.226,34.999C480.951,254.993,480.951,257.008,481.641,258.834z"
     id="path1316" /><path
     d="M389.144,122.491c1.927,1.927,3.838,3.922,5.679,5.926c1.581,1.722,3.741,2.595,5.908,2.595c1.937,0,3.88-0.698,5.419-2.111  c3.261-2.994,3.478-8.066,0.484-11.327c-1.995-2.172-4.064-4.332-6.153-6.42s-4.248-4.158-6.42-6.153  c-3.261-2.994-8.332-2.778-11.327,0.484c-2.994,3.261-2.778,8.333,0.484,11.327C385.222,118.652,387.215,120.562,389.144,122.491z"
     id="path1318" /><path
     d="M122.339,122.491c30.54-30.541,70.972-49.806,113.845-54.247c42.275-4.38,85.171,5.709,120.792,28.403  c3.735,2.379,8.689,1.281,11.068-2.453s1.281-8.689-2.453-11.068c-38.66-24.63-85.206-35.576-131.059-30.829  c-46.525,4.82-90.395,25.722-123.531,58.857c-36.467,36.467-57.699,84.911-59.785,136.408  C49.144,298.755,66.1,348.459,98.963,387.515c1.585,1.884,3.853,2.855,6.139,2.855c1.822,0,3.653-0.618,5.157-1.882  c3.387-2.851,3.823-7.908,0.973-11.295c-30.281-35.989-45.905-81.795-43.994-128.982C69.159,200.749,88.728,156.101,122.339,122.491  z"
     id="path1320" /><path
     d="M417.442,143.589c-3.735,2.379-4.832,7.335-2.453,11.068c22.694,35.622,32.781,78.52,28.403,120.792  c-4.441,42.874-23.706,83.305-54.246,113.847c-33.611,33.61-78.259,53.179-125.72,55.101  c-47.179,1.918-92.994-13.713-128.982-43.993c-3.387-2.851-8.444-2.415-11.295,0.973c-2.851,3.387-2.415,8.444,0.973,11.295  c36.921,31.065,83.351,47.917,131.566,47.916c2.789,0,5.589-0.057,8.389-0.17c51.497-2.085,99.94-23.317,136.408-59.784  c33.136-33.136,54.039-77.007,58.857-123.532c4.75-45.855-6.198-92.399-30.829-131.059  C426.132,142.308,421.174,141.209,417.442,143.589z"
     id="path1322" /><g
     id="g1324" /><g
     id="g1326" /><g
     id="g1328" /><g
     id="g1330" /><g
     id="g1332" /><g
     id="g1334" /><g
     id="g1336" /><g
     id="g1338" /><g
     id="g1340" /><g
     id="g1342" /><g
     id="g1344" /><g
     id="g1346" /><g
     id="g1348" /><g
     id="g1350" /><g
     id="g1352" /></svg>